<?xml version="1.0" encoding="UTF-8"?>
<svg xmlns="http://www.w3.org/2000/svg" xmlns:xlink="http://www.w3.org/1999/xlink" width="518.813pt" height="122.385pt" viewBox="0 0 518.813 122.385" version="1.2">
<defs>
<g>
<symbol overflow="visible" id="glyph0-0">
<path style="stroke:none;" d="M 2.765625 -20.578125 L 2.765625 0 L 15.390625 0 L 15.390625 -20.578125 Z M 13.78125 -1.46875 L 4.375 -1.46875 L 4.375 -19.109375 L 13.78125 -19.109375 Z M 6.75 -13.453125 C 7 -14.703125 7.828125 -15.390625 9.03125 -15.390625 C 10.265625 -15.390625 11.078125 -14.5625 11.078125 -13.453125 C 11.078125 -12.515625 10.859375 -11.96875 9.609375 -10.90625 C 8.5625 -10 8.140625 -9.140625 8.171875 -7.96875 L 8.203125 -7.03125 L 9.5 -7.03125 L 9.53125 -7.953125 C 9.546875 -9.03125 9.78125 -9.390625 10.859375 -10.296875 C 12.078125 -11.296875 12.515625 -12.15625 12.515625 -13.515625 C 12.515625 -15.34375 11.125 -16.609375 9.078125 -16.609375 C 7.140625 -16.609375 5.765625 -15.453125 5.421875 -13.5625 L 6.484375 -13.34375 Z M 8.9375 -3.40625 C 9.5 -3.40625 9.96875 -3.84375 9.96875 -4.4375 C 9.96875 -5.046875 9.5 -5.484375 8.9375 -5.484375 C 8.359375 -5.484375 7.890625 -5.046875 7.890625 -4.4375 C 7.890625 -3.84375 8.359375 -3.40625 8.9375 -3.40625 Z M 8.9375 -3.40625 "/>
</symbol>
<symbol overflow="visible" id="glyph0-1">
<path style="stroke:none;" d="M 2.734375 0 L 4.203125 0 L 4.203125 -19.578125 L 2.734375 -19.578125 Z M 2.734375 0 "/>
</symbol>
<symbol overflow="visible" id="glyph0-2">
<path style="stroke:none;" d="M 4.1875 0 L 4.1875 -11.96875 C 4.1875 -13.8125 4.1875 -15.359375 4.15625 -16.9375 L 4.1875 -16.9375 L 7.34375 -12.484375 L 16.28125 0.296875 L 17 0.296875 L 17 -19.578125 L 15.5625 -19.578125 L 15.5625 -8 C 15.5625 -6.140625 15.59375 -4.625 15.609375 -3.046875 L 15.5625 -3.046875 C 14.53125 -4.546875 13.515625 -6.015625 12.4375 -7.5 L 4.046875 -19.578125 L 2.734375 -19.578125 L 2.734375 0 Z M 4.1875 0 "/>
</symbol>
<symbol overflow="visible" id="glyph0-3">
<path style="stroke:none;" d="M 0.328125 -19.578125 L 0.328125 -18.21875 L 6.53125 -18.21875 L 6.53125 0 L 7.96875 0 L 7.96875 -18.21875 L 14.171875 -18.21875 L 14.171875 -19.578125 Z M 0.328125 -19.578125 "/>
</symbol>
<symbol overflow="visible" id="glyph0-4">
<path style="stroke:none;" d="M 12.015625 -9.359375 L 12.015625 -10.71875 L 4.203125 -10.71875 L 4.203125 -18.21875 L 12.625 -18.21875 L 12.453125 -19.578125 L 2.734375 -19.578125 L 2.734375 0 L 12.453125 0 L 12.625 -1.359375 L 4.203125 -1.359375 L 4.203125 -9.359375 Z M 12.015625 -9.359375 "/>
</symbol>
<symbol overflow="visible" id="glyph0-5">
<path style="stroke:none;" d="M 9.21875 -8.796875 C 11.828125 -9.390625 13.234375 -11.328125 13.234375 -14.03125 C 13.234375 -17.671875 11.1875 -19.578125 7.203125 -19.578125 L 2.734375 -19.578125 L 2.734375 0 L 4.203125 0 L 4.203125 -8.5625 L 7.71875 -8.5625 L 13.15625 0 L 14.703125 0 L 14.78125 -0.21875 Z M 4.203125 -18.25 L 6.921875 -18.25 C 10.25 -18.25 11.765625 -16.859375 11.765625 -14.03125 C 11.765625 -11.46875 10.40625 -9.890625 7.25 -9.890625 L 4.203125 -9.890625 Z M 4.203125 -18.25 "/>
</symbol>
<symbol overflow="visible" id="glyph0-6">
<path style="stroke:none;" d="M 7.46875 -19.609375 L 0.0625 -0.078125 L 0.109375 0 L 1.609375 0 L 3.625 -5.484375 L 12.484375 -5.484375 L 14.515625 0 L 16.03125 0 L 16.09375 -0.078125 L 8.671875 -19.609375 Z M 6.484375 -13.203125 C 7 -14.671875 7.5625 -16.203125 8.03125 -17.578125 L 8.0625 -17.578125 C 8.53125 -16.203125 9.046875 -14.703125 9.609375 -13.203125 L 11.984375 -6.75 L 4.09375 -6.75 Z M 6.484375 -13.203125 "/>
</symbol>
<symbol overflow="visible" id="glyph0-7">
<path style="stroke:none;" d="M 10.296875 0.53125 C 15.71875 0.53125 19.125 -3.796875 19.125 -9.78125 C 19.125 -15.75 15.8125 -20.09375 10.296875 -20.09375 C 4.8125 -20.09375 1.5 -15.75 1.5 -9.78125 C 1.5 -3.796875 4.90625 0.53125 10.296875 0.53125 Z M 10.296875 -0.890625 C 5.84375 -0.890625 3.046875 -4.65625 3.046875 -9.78125 C 3.046875 -15 5.8125 -18.65625 10.296875 -18.65625 C 14.8125 -18.65625 17.578125 -15 17.578125 -9.78125 C 17.578125 -4.65625 14.78125 -0.890625 10.296875 -0.890625 Z M 10.296875 -0.890625 "/>
</symbol>
<symbol overflow="visible" id="glyph0-8">
<path style="stroke:none;" d="M 2.734375 0 L 12.5625 0 L 12.765625 -1.359375 L 4.203125 -1.359375 L 4.203125 -19.578125 L 2.734375 -19.578125 Z M 2.734375 0 "/>
</symbol>
<symbol overflow="visible" id="glyph0-9">
<path style="stroke:none;" d=""/>
</symbol>
<symbol overflow="visible" id="glyph0-10">
<path style="stroke:none;" d="M 0.328125 -19.578125 L 0.296875 -19.484375 L 6.453125 -8.109375 L 6.453125 0 L 7.921875 0 L 7.921875 -8.109375 L 14.0625 -19.484375 L 14.03125 -19.578125 L 12.453125 -19.578125 L 9.5 -13.90625 L 7.203125 -9.5 L 7.171875 -9.5 C 6.390625 -10.96875 5.640625 -12.4375 4.875 -13.921875 L 1.90625 -19.578125 Z M 0.328125 -19.578125 "/>
</symbol>
</g>
<clipPath id="clip1">
  <path d="M 465 0 L 517.421875 0 L 517.421875 67 L 465 67 Z M 465 0 "/>
</clipPath>
<clipPath id="clip2">
  <path d="M 1.203125 1 L 71 1 L 71 67 L 1.203125 67 Z M 1.203125 1 "/>
</clipPath>
<clipPath id="clip3">
  <path d="M 1.203125 80 L 517.421875 80 L 517.421875 82 L 1.203125 82 Z M 1.203125 80 "/>
</clipPath>
</defs>
<g id="surface1">
<g style="fill:rgb(13.725281%,12.156677%,12.548828%);fill-opacity:1;">
  <use xlink:href="#glyph0-1" x="87.400751" y="114.712356"/>
  <use xlink:href="#glyph0-2" x="97.119296" y="114.712356"/>
  <use xlink:href="#glyph0-3" x="119.629773" y="114.712356"/>
  <use xlink:href="#glyph0-4" x="136.907187" y="114.712356"/>
  <use xlink:href="#glyph0-5" x="154.101536" y="114.712356"/>
  <use xlink:href="#glyph0-2" x="172.154219" y="114.712356"/>
  <use xlink:href="#glyph0-6" x="194.664696" y="114.712356"/>
</g>
<g style="fill:rgb(13.725281%,12.156677%,12.548828%);fill-opacity:1;">
  <use xlink:href="#glyph0-3" x="212.274368" y="114.712356"/>
  <use xlink:href="#glyph0-1" x="229.551782" y="114.712356"/>
  <use xlink:href="#glyph0-7" x="239.270327" y="114.712356"/>
  <use xlink:href="#glyph0-2" x="262.666825" y="114.712356"/>
  <use xlink:href="#glyph0-6" x="285.177302" y="114.712356"/>
  <use xlink:href="#glyph0-8" x="304.088318" y="114.712356"/>
  <use xlink:href="#glyph0-9" x="319.953636" y="114.712356"/>
  <use xlink:href="#glyph0-5" x="328.48159" y="114.712356"/>
  <use xlink:href="#glyph0-4" x="346.534273" y="114.712356"/>
</g>
<g style="fill:rgb(13.725281%,12.156677%,12.548828%);fill-opacity:1;">
  <use xlink:href="#glyph0-6" x="363.839375" y="114.712356"/>
  <use xlink:href="#glyph0-8" x="382.750391" y="114.712356"/>
</g>
<g style="fill:rgb(13.725281%,12.156677%,12.548828%);fill-opacity:1;">
  <use xlink:href="#glyph0-3" x="396.594472" y="114.712356"/>
  <use xlink:href="#glyph0-10" x="413.871886" y="114.712356"/>
</g>
<path style=" stroke:none;fill-rule:nonzero;fill:rgb(0%,0%,0%);fill-opacity:1;" d="M 321.230469 27.488281 L 288.75 27.488281 L 288.75 0.710938 L 276.578125 0.710938 L 276.578125 66.257812 L 288.75 66.257812 L 288.75 38.503906 L 321.230469 38.503906 L 321.230469 66.257812 L 333.402344 66.257812 L 333.402344 0.710938 L 321.230469 0.710938 Z M 321.230469 27.488281 "/>
<path style=" stroke:none;fill-rule:nonzero;fill:rgb(0%,0%,0%);fill-opacity:1;" d="M 383.652344 40.296875 L 361.8125 40.296875 L 372.734375 15.488281 Z M 367.316406 0.710938 L 337.636719 66.257812 L 350.40625 66.257812 L 357.257812 50.691406 L 388.210938 50.691406 L 395.058594 66.257812 L 408.011719 66.257812 L 378.234375 0.710938 Z M 367.316406 0.710938 "/>
<path style=" stroke:none;fill-rule:nonzero;fill:rgb(0%,0%,0%);fill-opacity:1;" d="M 450.289062 37.398438 C 450.289062 49.765625 445.0625 55.773438 434.3125 55.773438 C 423.625 55.773438 418.425781 49.765625 418.425781 37.398438 L 418.425781 0.710938 L 406.253906 0.710938 L 406.253906 37.753906 C 406.253906 56.320312 416.449219 66.96875 434.222656 66.96875 C 452 66.96875 462.191406 56.320312 462.191406 37.753906 L 462.191406 0.710938 L 450.289062 0.710938 Z M 450.289062 37.398438 "/>
<g clip-path="url(#clip1)" clip-rule="nonzero">
<path style=" stroke:none;fill-rule:nonzero;fill:rgb(0%,0%,0%);fill-opacity:1;" d="M 494.449219 28.1875 C 485.277344 25.96875 479.707031 24.246094 479.707031 19.074219 C 479.707031 13.839844 484.621094 10.835938 493.191406 10.835938 C 498.78125 10.835938 504.535156 12.546875 509.386719 15.652344 L 511.035156 16.707031 L 515.222656 6.554688 L 514.136719 5.804688 C 508.863281 2.171875 501.035156 0 493.191406 0 C 485.164062 0 478.558594 1.960938 474.085938 5.671875 C 469.976562 9.082031 467.710938 13.96875 467.710938 19.429688 C 467.710938 33.488281 480.496094 36.589844 490.765625 39.082031 C 499.890625 41.292969 505.429688 43.007812 505.429688 48.160156 C 505.429688 53.226562 500.417969 56.128906 491.679688 56.128906 C 484.421875 56.128906 476.789062 53.46875 472.230469 49.347656 L 470.59375 47.871094 L 465.84375 57.886719 L 466.722656 58.703125 C 472.132812 63.722656 481.925781 66.96875 491.679688 66.96875 C 507.316406 66.96875 517.421875 59.375 517.421875 47.628906 C 517.421875 33.75 504.683594 30.664062 494.449219 28.1875 "/>
</g>
<path style=" stroke:none;fill-rule:nonzero;fill:rgb(0%,0%,0%);fill-opacity:1;" d="M 107.09375 11.550781 C 119.449219 11.550781 128.421875 20.921875 128.421875 33.839844 C 128.421875 46.753906 119.449219 56.128906 107.09375 56.128906 C 94.636719 56.128906 85.597656 46.753906 85.597656 33.839844 C 85.597656 20.921875 94.636719 11.550781 107.09375 11.550781 M 107.09375 67.324219 C 125.949219 67.324219 140.171875 52.929688 140.171875 33.839844 C 140.171875 14.75 125.949219 0.355469 107.09375 0.355469 C 88.140625 0.355469 73.847656 14.75 73.847656 33.839844 C 73.847656 52.929688 88.140625 67.324219 107.09375 67.324219 "/>
<path style=" stroke:none;fill-rule:nonzero;fill:rgb(0%,0%,0%);fill-opacity:1;" d="M 198.75 1.066406 L 186.84375 1.066406 L 186.84375 44.378906 L 153.046875 1.066406 L 143.53125 1.066406 L 143.53125 66.609375 L 155.4375 66.609375 L 155.4375 23.300781 L 189.234375 66.609375 L 198.75 66.609375 Z M 198.75 1.066406 "/>
<path style=" stroke:none;fill-rule:nonzero;fill:rgb(0%,0%,0%);fill-opacity:1;" d="M 203.503906 1.066406 L 203.503906 12.082031 L 219.632812 12.082031 L 219.632812 66.613281 L 231.714844 66.613281 L 231.714844 12.082031 L 247.574219 12.082031 L 247.574219 1.066406 Z M 203.503906 1.066406 "/>
<g clip-path="url(#clip2)" clip-rule="nonzero">
<path style=" stroke:none;fill-rule:nonzero;fill:rgb(0%,0%,0%);fill-opacity:1;" d="M 70.660156 1.066406 L 60.789062 1.066406 L 36.101562 43.246094 L 32.402344 37.015625 L 54.058594 1.058594 L 2.574219 1.058594 L 2.582031 1.066406 L 1.203125 1.066406 L 1.203125 66.613281 L 13.019531 66.613281 L 13.019531 25.363281 L 35.984375 60.414062 L 58.859375 25.128906 L 58.9375 66.613281 L 70.753906 66.613281 Z M 70.660156 1.066406 "/>
</g>
<g clip-path="url(#clip3)" clip-rule="nonzero">
<path style="fill:none;stroke-width:0.75;stroke-linecap:butt;stroke-linejoin:miter;stroke:rgb(13.725281%,12.156677%,12.548828%);stroke-opacity:1;stroke-miterlimit:10;" d="M -0.000879397 -0.00172915 L 518.811935 -0.00172915 " transform="matrix(0.995,0,0,-0.995,1.204,81.193592)"/>
</g>
</g>
</svg>
