<?xml version="1.0" encoding="UTF-8"?>
<svg id="Layer_1" data-name="Layer 1" xmlns="http://www.w3.org/2000/svg" viewBox="0 0 247.67 183.17">
  <defs>
    <style>
      .cls-1 {
        fill: #808285;
      }
    </style>
  </defs>
  <g>
    <path class="cls-1" d="M0,168.93h1.04v13.87H0v-13.87Z"/>
    <path class="cls-1" d="M6.89,182.8v-13.87h.92l5.95,8.56c.77,1.06,1.49,2.1,2.22,3.16h.04c-.02-1.12-.04-2.2-.04-3.51v-8.2h1.02v14.09h-.51l-6.34-9.07-2.24-3.16h-.02c.02,1.12.02,2.22.02,3.53v8.48h-1.02Z"/>
    <path class="cls-1" d="M30.95,168.93v.96h-4.4v12.91h-1.02v-12.91h-4.4v-.96h9.81Z"/>
    <path class="cls-1" d="M36.14,176.17v5.67h5.96l-.12.96h-6.89v-13.87h6.89l.12.96h-5.96v5.32h5.53v.96h-5.53Z"/>
    <path class="cls-1" d="M55.82,182.64l-.06.16h-1.1l-3.85-6.06h-2.49v6.06h-1.04v-13.87h3.16c2.83,0,4.28,1.35,4.28,3.92,0,1.92-1,3.3-2.85,3.71l3.94,6.08ZM48.33,175.8h2.16c2.24,0,3.2-1.12,3.2-2.94,0-2-1.08-2.98-3.43-2.98h-1.92v5.93Z"/>
    <path class="cls-1" d="M60.09,182.8v-13.87h.92l5.95,8.56c.77,1.06,1.49,2.1,2.22,3.16h.04c-.02-1.12-.04-2.2-.04-3.51v-8.2h1.02v14.09h-.51l-6.34-9.07-2.24-3.16h-.02c.02,1.12.02,2.22.02,3.53v8.48h-1.02Z"/>
    <path class="cls-1" d="M80.24,168.91l5.26,13.83-.04.06h-1.08l-1.43-3.89h-6.28l-1.43,3.89h-1.06l-.04-.06,5.26-13.83h.84ZM77.01,178.01h5.59l-1.69-4.57c-.39-1.06-.77-2.12-1.1-3.1h-.02c-.33.98-.73,2.06-1.1,3.1l-1.69,4.57Z"/>
    <path class="cls-1" d="M96.63,168.93v.96h-4.4v12.91h-1.02v-12.91h-4.4v-.96h9.81Z"/>
    <path class="cls-1" d="M100.78,168.93h1.04v13.87h-1.04v-13.87Z"/>
    <path class="cls-1" d="M106.79,175.87c0-4.24,2.35-7.32,6.24-7.32s6.26,3.08,6.26,7.32-2.41,7.3-6.26,7.3-6.24-3.06-6.24-7.3ZM118.19,175.87c0-3.71-1.96-6.3-5.16-6.3s-5.14,2.59-5.14,6.3,1.98,6.3,5.14,6.3,5.16-2.67,5.16-6.3Z"/>
    <path class="cls-1" d="M124.25,182.8v-13.87h.92l5.95,8.56c.77,1.06,1.49,2.1,2.22,3.16h.04c-.02-1.12-.04-2.2-.04-3.51v-8.2h1.02v14.09h-.51l-6.34-9.07-2.24-3.16h-.02c.02,1.12.02,2.22.02,3.53v8.48h-1.02Z"/>
    <path class="cls-1" d="M144.41,168.91l5.26,13.83-.04.06h-1.08l-1.43-3.89h-6.28l-1.43,3.89h-1.06l-.04-.06,5.26-13.83h.84ZM141.18,178.01h5.59l-1.69-4.57c-.39-1.06-.77-2.12-1.1-3.1h-.02c-.33.98-.73,2.06-1.1,3.1l-1.69,4.57Z"/>
    <path class="cls-1" d="M153.62,168.93h1.04v12.91h6.06l-.14.96h-6.97v-13.87Z"/>
    <path class="cls-1" d="M179.45,182.64l-.06.16h-1.1l-3.85-6.06h-2.49v6.06h-1.04v-13.87h3.16c2.83,0,4.28,1.35,4.28,3.92,0,1.92-1,3.3-2.85,3.71l3.94,6.08ZM171.95,175.8h2.16c2.24,0,3.2-1.12,3.2-2.94,0-2-1.08-2.98-3.43-2.98h-1.92v5.93Z"/>
    <path class="cls-1" d="M184.75,176.17v5.67h5.97l-.12.96h-6.89v-13.87h6.89l.12.96h-5.97v5.32h5.53v.96h-5.53Z"/>
    <path class="cls-1" d="M200.18,168.91l5.26,13.83-.04.06h-1.08l-1.43-3.89h-6.28l-1.43,3.89h-1.06l-.04-.06,5.26-13.83h.84ZM196.94,178.01h5.59l-1.69-4.57c-.39-1.06-.77-2.12-1.1-3.1h-.02c-.33.98-.73,2.06-1.1,3.1l-1.69,4.57Z"/>
    <path class="cls-1" d="M209.39,168.93h1.04v12.91h6.06l-.14.96h-6.97v-13.87Z"/>
    <path class="cls-1" d="M227.31,168.93v.96h-4.4v12.91h-1.02v-12.91h-4.4v-.96h9.81Z"/>
    <path class="cls-1" d="M230.86,168.93l2.1,4c.55,1.06,1.08,2.1,1.63,3.14h.02l1.63-3.12,2.1-4.02h1.12l.02.06-4.36,8.06v5.75h-1.04v-5.75l-4.36-8.06.02-.06h1.12Z"/>
  </g>
  <g>
    <polygon class="cls-1" points="44.94 110.99 12.3 110.99 12.3 84.08 .07 84.08 .07 149.96 12.3 149.96 12.3 122.06 44.94 122.06 44.94 149.96 57.18 149.96 57.18 84.08 44.94 84.08 44.94 110.99"/>
    <path class="cls-1" d="M91.26,84.08l-29.83,65.87h12.84l6.88-15.65h31.11l6.88,15.65h13.02l-29.92-65.87h-10.97ZM107.68,123.87h-21.95l10.98-24.93,10.98,24.93Z"/>
    <path class="cls-1" d="M174.65,120.95c0,12.43-5.25,18.47-16.05,18.47s-15.97-6.04-15.97-18.47v-36.87h-12.23v37.23c0,18.66,10.25,29.36,28.11,29.36s28.11-10.7,28.11-29.36v-37.23h-11.96v36.87Z"/>
    <path class="cls-1" d="M219.03,111.7c-9.22-2.23-14.82-3.96-14.82-9.16s4.94-8.28,13.55-8.28c5.62,0,11.4,1.72,16.28,4.84l1.66,1.06,4.21-10.2-1.09-.75c-5.3-3.65-13.17-5.83-21.05-5.83s-14.71,1.97-19.2,5.7c-4.13,3.43-6.41,8.34-6.41,13.83,0,14.13,12.85,17.25,23.17,19.75,9.17,2.22,14.74,3.95,14.74,9.13s-5.04,8.01-13.82,8.01c-7.29,0-14.97-2.68-19.55-6.82l-1.64-1.48-4.78,10.06.88.82c5.44,5.05,15.28,8.31,25.08,8.31,15.72,0,25.87-7.63,25.87-19.44,0-13.95-12.8-17.05-23.09-19.54Z"/>
    <path class="cls-1" d="M106.49,67.3c18.95,0,33.24-14.47,33.24-33.65S125.44,0,106.49,0s-33.41,14.47-33.41,33.65,14.37,33.65,33.41,33.65ZM84.88,33.65c0-12.98,9.09-22.4,21.6-22.4s21.43,9.42,21.43,22.4-9.01,22.4-21.43,22.4-21.6-9.42-21.6-22.4Z"/>
    <polygon class="cls-1" points="198.6 .71 186.64 .71 186.64 44.24 152.67 .71 143.11 .71 143.11 66.59 155.07 66.59 155.07 23.06 189.04 66.59 198.6 66.59 198.6 .71"/>
    <polygon class="cls-1" points="203.38 .71 203.38 11.79 219.59 11.79 219.59 66.59 231.74 66.59 231.74 11.79 247.67 11.79 247.67 .71 203.38 .71"/>
    <polygon class="cls-1" points="69.87 .72 59.95 .72 35.14 43.1 30.14 34.74 50.54 .71 1.44 .71 1.45 .72 .07 .72 .07 66.59 11.94 66.59 11.94 25.13 35.02 60.36 58.01 24.9 58.09 66.59 69.96 66.59 69.87 .72"/>
  </g>
</svg>